<?xml version="1.0" encoding="utf-8"?>
<!-- Generator: Adobe Illustrator 20.1.0, SVG Export Plug-In . SVG Version: 6.00 Build 0)  -->
<svg version="1.1" id="Layer_1" xmlns="http://www.w3.org/2000/svg" xmlns:xlink="http://www.w3.org/1999/xlink" x="0px" y="0px"
	 viewBox="0 0 1792 448" style="enable-background:new 0 0 1792 448;" xml:space="preserve">
<style type="text/css">
	.st0{fill:#FFFFFF;}
</style>
<path class="st0" d="M1398.2,124.5c-26.2,24.1-75.1,17.9-93.9-13.1c-26.6-43.9,35.7-82.9,72.5-77c30,4.8,40.7,31.6,36.3,61.2
	C1411.3,107.8,1405.8,117.4,1398.2,124.5L1398.2,124.5z M1559.7,127.5c30.1-19.2,31.8-64.5,11.8-91.3c-24.2-32.5-78-36.5-107.2-8
	c-23.4,22.9-24.3,60-2.1,85c17.2,19.4,45.8,24.8,70.2,22.9C1543.2,135.4,1552.3,132.3,1559.7,127.5L1559.7,127.5z M1265.9,158.5
	c1.2-1.8,2.1-3.9,2.9-6.2c6.1-18.5-8.2-36.4-26.7-33.4c-14.7,2.4-27,16.5-22.3,32.5C1226.4,174.4,1254.8,176.2,1265.9,158.5
	L1265.9,158.5z M135.3,260.4c-20.6,0-39.1,8.1-51.9,16.8l12.1-75.5H44L5.9,444.1h51.2l20.6-129.4c8.8-6.4,20.2-12.1,31.3-12.1
	c11.5,0,14.8,5.7,15.2,13.8c0,4-0.7,8.4-1,11.8L105,444.1h51.2l18.9-119.7c1.3-9.1,2.4-17.9,2.4-24.3
	C177.5,276,166.7,260.4,135.3,260.4L135.3,260.4z M351.7,307c0-27-19.2-46.5-55.3-46.5c-65.4,0-94.7,60.7-94.7,113.3
	c0,41.1,20.2,74.1,72.8,74.1c21.9,0,40.8-4.7,54.3-11.5l6.4-43.8c-13.5,6.7-28.7,12.8-44.8,12.8c-24.3,0-36.7-10.4-36.7-36.1
	c3,0.3,6.4,0.3,9.4,0.3C306.5,369.7,351.7,351.1,351.7,307L351.7,307z M292.4,296.2c9.8,0,15.2,4.7,15.2,14.5
	c0,18.5-25.3,26-45.5,26c-2,0-4.4,0-6.4-0.3C258,315.4,274.2,296.2,292.4,296.2L292.4,296.2z M421.1,447.5
	c23.9,0,37.8-9.4,49.2-19.5c5.1,11.8,15.5,19.9,34.4,19.9c11.1,0,20.9-2,30.7-5.4l4.7-33.7c-4,1-9.8,2.7-14.5,2.7
	c-8.1,0-9.1-6.4-7.8-14.8l20.9-133.1h-43.8l-4.4,11.5c-10.8-9.8-24.9-14.5-40.4-14.5c-56.3,0-82.9,63.7-82.9,115.9
	C367.2,423.6,387.7,447.5,421.1,447.5L421.1,447.5z M420.1,372.7c0-23.3,8.4-73.8,39.1-73.8c8.1,0,15.2,3.4,21.2,8.4L465.6,399
	c-6.4,4.7-15.2,8.4-23.9,8.4C426.8,407.4,420.1,395.6,420.1,372.7L420.1,372.7z M565.7,393.2c-1,5.7-1.3,11.1-1.3,16.2
	c0,23.6,11.1,38.4,45.2,38.4c12.8,0,27.6-2,42.1-7.8l6.1-40.5c-9.8,4.4-20.9,5.7-26.6,5.7c-10.1,0-12.5-6.4-12.5-14.5
	c0-4.4,0.7-9.1,1.3-13.5l27.6-175.6H596L565.7,393.2L565.7,393.2z M786.1,299.5l5.4-36.1h-38.1l8.8-54.3l-54.6,21.6l-5.7,32.7h-23.3
	l-5.7,36.1h23.6l-15.2,94.7c-0.7,4.7-1.4,9.4-1.4,15.5c0,21.6,12.1,38.1,44.2,38.1c14.8,0,33-2.7,44.5-7.8l5.7-40.8
	c-8.4,3.7-20.6,6.4-27.6,6.4c-9.8,0-13.5-5.1-13.5-13.5c0-3.4,0.7-6.7,1-10.4l13.5-82.2L786.1,299.5L786.1,299.5z M923.9,260.4
	c-20.6,0-39.1,8.1-51.9,16.8l12.1-75.5h-51.6l-38.1,242.3h51.2l20.6-129.4c8.8-6.4,20.2-12.1,31.3-12.1c11.5,0,14.8,5.7,15.2,13.8
	c0,4-0.7,8.4-1,11.8l-18.2,115.9h51.2l18.9-119.7c1.4-9.1,2.4-17.9,2.4-24.3C966.1,276,955.3,260.4,923.9,260.4L923.9,260.4z
	 M1079,262.5c-58.3,0-81.9,70.8-81.9,123.4c0,42.1,18.5,61.7,48.2,61.7c20.9,0,38.1-9.8,51.2-20.9l-2.7,17.5h21.2l38.1-242.3h-22.6
	l-11.8,76.2C1107.7,269.5,1096.9,262.5,1079,262.5L1079,262.5z M1021.1,385.2c0-32.7,14.8-102.5,56.3-102.5c15.5,0,27,6.4,37.4,15.8
	l-17.2,110.6c-11.1,9.1-28.3,18.2-44.8,18.2C1030.5,427.3,1021.1,415.2,1021.1,385.2L1021.1,385.2z M1201,266.2l-28,178h22.2l28-178
	L1201,266.2L1201,266.2z M1203.7,223.4c0,8.1,4.7,13.8,12.8,13.8c11.5,0,18.5-9.4,18.5-19.5c0-7.8-4.4-12.8-13.5-12.8
	C1210.5,204.8,1203.7,213.6,1203.7,223.4L1203.7,223.4z M1346.3,262.5c-18.2,0-34,10.4-46.8,22.6l3-18.9h-21.2l-28,178h22.6
	l21.6-137.2c10.4-10.1,27.3-22.9,40.8-22.9c11.5,0,14.5,6.4,17.5,16.2l20.6-9.4C1373.6,277.3,1365.8,262.5,1346.3,262.5
	L1346.3,262.5z M1511.4,302.6c0-22.6-15.5-40.1-46.5-40.1c-62,0-84.3,68.1-84.3,115.9c0,38.4,14.5,69.8,59,69.8
	c22.2,0,38.1-4.7,49.2-10.4l3.4-21.9c-12.5,6.1-28.7,12.5-46.8,12.5c-30,0-41.8-18.9-41.8-48.5c0-5.7,0.3-11.8,1-18.2
	C1446.1,360.5,1511.4,352.1,1511.4,302.6L1511.4,302.6z M1408.3,343.7c4-27.3,22.6-61.7,52.2-61.7c17.9,0,27.3,7.8,27.3,22.2
	C1487.8,334.6,1436.3,343.7,1408.3,343.7L1408.3,343.7z M1599.4,428.6c-30,0-41.5-17.5-41.5-52.6c0-33.4,14.5-93.7,57.3-93.7
	c20.6,0,28.3,16.2,30.3,34.7l20.9-4.7c-1.4-22.2-11.8-49.9-47.9-49.9c-62.7,0-84.3,65.4-84.3,117.3c0,36.1,14.5,68.4,61.7,68.4
	c20.6,0,38.1-4.7,50.6-10.8l3.4-21.9C1634.4,423.2,1616.2,428.6,1599.4,428.6L1599.4,428.6z M1783.4,284.4l2.7-18.2h-46.5l6.7-41.8
	l-24.3,12.8l-4.7,29h-22.9l-2.7,18.2h22.9L1695.4,404c-0.7,4.7-1,9.1-1,13.1c0,19.5,8.8,31,31.7,31c12.1,0,25.6-3.4,32.7-6.7l3-20.6
	c-8.1,3.7-19.5,7.8-28.7,7.8c-12.1,0-15.8-5.7-15.8-16.2c0-5.1,1-11.8,2-18.2l17.5-109.9L1783.4,284.4L1783.4,284.4z"/>
</svg>
