<?xml version="1.0" encoding="utf-8"?>
<!-- Generator: Adobe Illustrator 20.1.0, SVG Export Plug-In . SVG Version: 6.00 Build 0)  -->
<svg version="1.1" id="Layer_1" xmlns="http://www.w3.org/2000/svg" xmlns:xlink="http://www.w3.org/1999/xlink" x="0px" y="0px"
	 viewBox="0 0 742 448" style="enable-background:new 0 0 742 448;" xml:space="preserve">
<style type="text/css">
	.st0{fill:#FFFFFF;}
</style>
<g id="icomoon-ignore">
</g>
<path class="st0" d="M372.1,221.4c-49.5,45.5-141.9,33.7-177.3-24.7c-50.3-82.9,67.3-156.5,137-145.4c56.6,9,76.9,59.7,68.6,115.5
	C396.9,189.9,386.5,208.1,372.1,221.4L372.1,221.4z M677,227.2c56.8-36.2,60-121.7,22.3-172.4c-45.8-61.4-147.2-69-202.4-15.1
	c-44.2,43.2-45.9,113.2-3.9,160.6c32.5,36.7,86.5,46.8,132.6,43.3C645.9,242,663,236.1,677,227.2L677,227.2z M122.3,285.6
	c2.2-3.5,4-7.3,5.4-11.7c11.4-35-15.4-68.8-50.4-63c-27.7,4.5-50.9,31.2-42.1,61.4C47.8,315.7,101.4,319,122.3,285.6L122.3,285.6z
	 M5,408.2c0,15.3,8.9,26.1,24.2,26.1c21.6,0,35-17.8,35-36.9c0-14.6-8.2-24.2-25.4-24.2C17.7,373.1,5,389.7,5,408.2L5,408.2z"/>
</svg>
