<?xml version="1.0" encoding="utf-8"?>
<!-- Generator: Adobe Illustrator 20.0.0, SVG Export Plug-In . SVG Version: 6.00 Build 0)  -->
<svg version="1.1" id="Layer_1" xmlns="http://www.w3.org/2000/svg" xmlns:xlink="http://www.w3.org/1999/xlink" x="0px" y="0px"
	 viewBox="0 0 95.06 56.91" style="enable-background:new 0 0 95.06 56.91;" xml:space="preserve">
<style type="text/css">
	.st0{fill:#F5896B;}
	.st1{fill:#F6B76D;}
	.st2{fill:#E25553;}
</style>
<path class="st0" d="M48.52,28.79c-6.54,6.02-18.74,4.46-23.43-3.26c-6.65-10.96,8.9-20.68,18.1-19.22
	c7.48,1.19,10.15,7.89,9.06,15.26C51.8,24.62,50.43,27.03,48.52,28.79"/>
<path class="st1" d="M88.82,29.55c-1.85,1.18-4.11,1.95-6.8,2.16c-6.09,0.47-13.22-0.87-17.52-5.72
	c-5.54-6.26-5.32-15.51,0.52-21.22c7.29-7.13,20.71-6.12,26.75,1.99C96.75,13.46,96.32,24.77,88.82,29.55"/>
<path class="st2" d="M15.51,37.27C12.74,41.69,5.66,41.25,4,35.52c-1.15-3.99,1.91-7.51,5.57-8.11c4.62-0.76,8.17,3.71,6.65,8.33
	C16.05,36.3,15.8,36.81,15.51,37.27"/>
<path class="st2" d="M4.46,48.84c2.27,0,3.36,1.26,3.36,3.19c0,2.52-1.77,4.88-4.63,4.88c-2.02,0-3.2-1.43-3.2-3.45
	C0,51.03,1.68,48.84,4.46,48.84z"/>
</svg>
