<?xml version="1.0" encoding="utf-8"?>
<!-- Generator: Adobe Illustrator 20.0.0, SVG Export Plug-In . SVG Version: 6.00 Build 0)  -->
<svg version="1.1" id="Layer_1" xmlns="http://www.w3.org/2000/svg" xmlns:xlink="http://www.w3.org/1999/xlink" x="0px" y="0px"
	 viewBox="0 0 1792 448" style="enable-background:new 0 0 1792 448;" xml:space="preserve">
<style type="text/css">
	.st0{fill:#FFFFFF;}
</style>
<g id="icomoon-ignore">
</g>
<path class="st0" d="M1398.16,124.47c-26.2,24.11-75.12,17.86-93.9-13.07c-26.65-43.92,35.67-82.88,72.55-77.02
	c29.96,4.76,40.7,31.63,36.32,61.18C1411.32,107.77,1405.83,117.41,1398.16,124.47L1398.16,124.47z M1559.68,127.54
	c30.08-19.18,31.79-64.48,11.83-91.32c-24.23-32.53-78-36.55-107.22-7.99c-23.38,22.86-24.27,59.96-2.06,85.04
	c17.21,19.43,45.8,24.82,70.21,22.93C1543.19,135.36,1552.26,132.26,1559.68,127.54L1559.68,127.54z M1265.9,158.48
	c1.15-1.85,2.13-3.9,2.87-6.16c6.05-18.52-8.16-36.43-26.67-33.37c-14.67,2.42-26.96,16.52-22.33,32.51
	C1226.39,174.43,1254.77,176.2,1265.9,158.48L1265.9,158.48z M135.33,260.45c-20.56,0-39.1,8.09-51.91,16.85l12.13-75.5H43.99
	L5.9,444.14h51.23l20.56-129.42c8.76-6.4,20.22-12.13,31.35-12.13c11.46,0,14.83,5.73,15.17,13.82c0,4.04-0.68,8.43-1.01,11.8
	L105,444.14h51.24l18.88-119.66c1.35-9.1,2.36-17.86,2.36-24.27C177.47,275.95,166.68,260.45,135.33,260.45L135.33,260.45z
	 M351.69,306.96c0-26.97-19.21-46.52-55.28-46.52c-65.39,0-94.71,60.67-94.71,113.25c0,41.12,20.22,74.15,72.81,74.15
	c21.91,0,40.78-4.72,54.26-11.46l6.4-43.82c-13.48,6.74-28.65,12.81-44.82,12.81c-24.27,0-36.74-10.45-36.74-36.07
	c3.04,0.34,6.4,0.34,9.44,0.34C306.54,369.65,351.7,351.11,351.69,306.96L351.69,306.96z M292.38,296.17
	c9.78,0,15.17,4.72,15.17,14.49c0,18.54-25.28,25.95-45.5,25.95c-2.02,0-4.39,0-6.4-0.34C258,315.38,274.17,296.18,292.38,296.17
	L292.38,296.17z M421.11,447.52c23.93,0,37.75-9.44,49.21-19.55c5.05,11.8,15.51,19.88,34.38,19.88c11.13,0,20.9-2.02,30.68-5.39
	l4.72-33.71c-4.04,1.01-9.78,2.7-14.49,2.7c-8.09,0-9.1-6.4-7.75-14.83l20.9-133.13h-43.82l-4.38,11.46
	c-10.78-9.78-24.95-14.49-40.45-14.49c-56.29,0-82.92,63.7-82.92,115.95C367.18,423.58,387.74,447.52,421.11,447.52L421.11,447.52z
	 M420.1,372.69c0-23.26,8.43-73.82,39.1-73.82c8.09,0,15.17,3.37,21.24,8.43l-14.83,91.68c-6.4,4.72-15.17,8.43-23.93,8.43
	C426.84,407.41,420.1,395.61,420.1,372.69L420.1,372.69z M565.68,393.25c-1.01,5.73-1.35,11.12-1.35,16.18
	c0,23.59,11.12,38.42,45.17,38.42c12.81,0,27.64-2.02,42.13-7.75l6.07-40.45c-9.78,4.39-20.9,5.74-26.63,5.74
	c-10.12,0-12.47-6.4-12.47-14.49c0-4.39,0.67-9.1,1.35-13.48l27.64-175.6h-51.57L565.68,393.25L565.68,393.25z M786.1,299.55
	l5.39-36.07H753.4l8.77-54.26l-54.6,21.57l-5.73,32.69h-23.26l-5.73,36.07h23.59l-15.17,94.71c-0.67,4.72-1.35,9.43-1.35,15.5
	c0,21.57,12.14,38.09,44.15,38.09c14.83,0,33.03-2.69,44.49-7.75l5.73-40.78c-8.42,3.7-20.55,6.4-27.64,6.4
	c-9.78,0-13.48-5.05-13.48-13.48c0-3.37,0.67-6.74,1.01-10.45l13.48-82.24L786.1,299.55L786.1,299.55z M923.94,260.45
	c-20.56,0-39.1,8.09-51.91,16.85l12.13-75.5h-51.57l-38.08,242.34h51.23l20.56-129.42c8.77-6.4,20.22-12.13,31.35-12.13
	c11.46,0,14.83,5.73,15.17,13.82c0,4.04-0.67,8.43-1.01,11.8l-18.2,115.95h51.23l18.88-119.66c1.35-9.1,2.36-17.86,2.36-24.27
	C966.07,275.95,955.29,260.45,923.94,260.45L923.94,260.45z M1079.05,262.47c-58.31,0-81.9,70.78-81.9,123.36
	c0,42.13,18.54,61.68,48.19,61.68c20.9,0,38.09-9.78,51.23-20.9l-2.69,17.52h21.23l38.09-242.34h-22.58l-11.8,76.17
	C1107.7,269.55,1096.91,262.47,1079.05,262.47L1079.05,262.47z M1021.06,385.16c0-32.69,14.83-102.46,56.29-102.46
	c15.5,0,26.96,6.4,37.41,15.84l-17.19,110.55c-11.13,9.1-28.32,18.2-44.83,18.2C1030.51,427.29,1021.06,415.16,1021.06,385.16
	L1021.06,385.16z M1201.04,266.18l-27.99,177.97h22.25l27.98-177.97L1201.04,266.18L1201.04,266.18z M1203.72,223.37
	c0,8.09,4.72,13.82,12.81,13.82c11.46,0,18.54-9.43,18.54-19.55c0-7.75-4.39-12.81-13.48-12.81
	C1210.47,204.83,1203.72,213.6,1203.72,223.37L1203.72,223.37z M1346.29,262.47c-18.2,0-34.04,10.45-46.85,22.59l3.03-18.88h-21.23
	l-27.99,177.97h22.58l21.58-137.18c10.45-10.12,27.3-22.92,40.78-22.92c11.46,0,14.49,6.4,17.53,16.18l20.56-9.44
	C1373.6,277.3,1365.84,262.47,1346.29,262.47L1346.29,262.47z M1511.44,302.58c0-22.58-15.51-40.11-46.52-40.11
	c-62.02,0-84.27,68.08-84.27,115.95c0,38.43,14.49,69.77,58.99,69.77c22.25,0,38.09-4.72,49.21-10.45l3.37-21.91
	c-12.47,6.07-28.65,12.46-46.85,12.46c-30,0-41.8-18.87-41.8-48.53c0-5.74,0.34-11.8,1.01-18.21
	C1446.05,360.55,1511.44,352.13,1511.44,302.58L1511.44,302.58z M1408.3,343.7c4.04-27.3,22.58-61.68,52.24-61.68
	c17.87,0,27.3,7.75,27.3,22.24C1487.84,334.6,1436.27,343.7,1408.3,343.7L1408.3,343.7z M1599.38,428.64
	c-29.99,0-41.46-17.52-41.46-52.58c0-33.37,14.49-93.7,57.31-93.7c20.56,0,28.31,16.18,30.34,34.72l20.89-4.72
	c-1.35-22.24-11.8-49.88-47.86-49.88c-62.7,0-84.27,65.38-84.27,117.3c0,36.07,14.49,68.42,61.68,68.42
	c20.56,0,38.08-4.72,50.55-10.78l3.37-21.91C1634.43,423.25,1616.23,428.64,1599.38,428.64L1599.38,428.64z M1783.4,284.38
	l2.7-18.21h-46.52l6.74-41.79l-24.27,12.81l-4.72,28.99h-22.92l-2.69,18.21h22.92l-19.21,119.65c-0.68,4.72-1.01,9.1-1.01,13.14
	c0,19.55,8.76,31.01,31.68,31.01c12.13,0,25.62-3.37,32.69-6.74l3.04-20.56c-8.09,3.7-19.55,7.75-28.65,7.75
	c-12.13,0-15.84-5.73-15.84-16.18c0-5.05,1.02-11.8,2.03-18.2l17.53-109.88h46.51L1783.4,284.38z"/>
</svg>
