<?xml version="1.0" encoding="utf-8"?>
<!-- Generated by IcoMoon.io -->
<!DOCTYPE svg PUBLIC "-//W3C//DTD SVG 1.1//EN" "http://www.w3.org/Graphics/SVG/1.1/DTD/svg11.dtd">
<svg version="1.1" xmlns="http://www.w3.org/2000/svg" xmlns:xlink="http://www.w3.org/1999/xlink" width="742" height="448" viewBox="0 0 742 448">
<g id="icomoon-ignore">
</g>
<path d="M372.093 221.425c-49.482 45.549-141.867 33.746-177.276-24.666-50.315-82.924 67.337-156.469 136.951-145.424 56.594 9.002 76.873 59.699 68.551 115.536-3.404 23.002-13.77 41.237-28.222 54.553zM677.014 227.177c56.823-36.243 60.001-121.743 22.32-172.433-45.774-61.438-147.239-69.005-202.397-15.057-44.187 43.202-45.851 113.192-3.858 160.555 32.536 36.697 86.483 46.834 132.561 43.279 20.279-1.513 37.377-7.415 51.374-16.344zM122.333 285.588c2.195-3.48 4.011-7.342 5.45-11.652 11.427-34.955-15.435-68.776-50.393-63.028-27.694 4.539-50.92 31.173-42.143 61.361 12.562 43.431 66.129 46.76 87.088 13.317zM4.981 408.16c0 15.284 8.928 26.102 24.212 26.102 21.638 0 35.030-17.781 35.030-36.923 0-14.602-8.246-24.212-25.423-24.212-21.11 0-33.821 16.57-33.821 35.030z"></path>
</svg>
