<?xml version="1.0" encoding="utf-8"?>
<!-- Generated by IcoMoon.io -->
<!DOCTYPE svg PUBLIC "-//W3C//DTD SVG 1.1//EN" "http://www.w3.org/Graphics/SVG/1.1/DTD/svg11.dtd">
<svg version="1.1" xmlns="http://www.w3.org/2000/svg" xmlns:xlink="http://www.w3.org/1999/xlink" width="1792" height="448" viewBox="0 0 1792 448">
<g id="icomoon-ignore">
</g>
<path d="M1398.162 124.469c-26.204 24.114-75.124 17.861-93.902-13.073-26.645-43.924 35.668-82.876 72.545-77.017 29.964 4.763 40.698 31.63 36.32 61.176-1.803 12.219-7.294 21.85-14.969 28.913zM1559.676 127.54c30.085-19.177 31.793-64.483 11.831-91.316-24.226-32.533-77.998-36.55-107.216-7.988-23.383 22.865-24.265 59.964-2.063 85.040 17.213 19.435 45.797 24.817 70.211 22.932 10.755-0.844 19.82-3.948 27.236-8.669zM1265.896 158.48c1.154-1.845 2.131-3.901 2.874-6.163 6.051-18.516-8.157-36.431-26.673-33.373-14.668 2.419-26.96 16.524-22.333 32.512 6.629 22.971 35.003 24.741 46.133 7.024zM135.331 260.448c-20.56 0-39.098 8.089-51.908 16.847l12.132-75.498h-51.566l-38.084 242.342h51.229l20.56-129.425c8.765-6.403 20.223-12.132 31.35-12.132 11.456 0 14.829 5.728 15.166 13.815 0 4.043-0.675 8.428-1.011 11.798l-18.198 115.945h51.236l18.876-119.657c1.347-9.103 2.356-17.861 2.356-24.265 0-24.265-10.79-39.771-42.133-39.771zM351.693 306.962c0-26.968-19.209-46.518-55.276-46.518-65.391 0-94.713 60.673-94.713 113.253 0 41.121 20.223 74.147 72.809 74.147 21.906 0 40.782-4.716 54.264-11.456l6.403-43.821c-13.478 6.745-28.651 12.814-44.824 12.814-24.272 0-36.742-10.448-36.742-36.067 3.035 0.339 6.403 0.339 9.44 0.339 43.482 0 88.644-18.54 88.644-62.696zM292.375 296.175c9.776 0 15.166 4.716 15.166 14.493 0 18.54-25.28 25.953-45.504 25.953-2.025 0-4.385 0-6.403-0.339 2.362-20.898 18.54-40.107 36.742-40.107zM421.11 447.515c23.93 0 37.754-9.44 49.211-19.548 5.054 11.795 15.507 19.883 34.379 19.883 11.126 0 20.898-2.025 30.676-5.387l4.716-33.713c-4.043 1.011-9.776 2.7-14.493 2.7-8.091 0-9.103-6.403-7.753-14.832l20.898-133.135h-43.821l-4.379 11.463c-10.783-9.779-24.945-14.494-40.445-14.494-56.291 0-82.918 63.704-82.918 115.945 0 47.185 20.563 71.12 53.932 71.12zM420.101 372.689c0-23.26 8.428-73.82 39.098-73.82 8.089 0 15.166 3.371 21.235 8.428l-14.832 91.681c-6.403 4.716-15.166 8.428-23.93 8.428-14.832 0.003-21.573-11.798-21.573-34.716zM565.681 393.25c-1.011 5.728-1.347 11.119-1.347 16.181 0 23.594 11.119 38.42 45.167 38.42 12.807 0 27.639-2.025 42.133-7.753l6.066-40.45c-9.776 4.385-20.898 5.736-26.626 5.736-10.116 0-12.471-6.403-12.471-14.494 0-4.385 0.675-9.103 1.347-13.482l27.64-175.604h-51.572l-30.339 191.445zM786.099 299.55l5.394-36.068h-38.090l8.765-54.264-54.603 21.573-5.728 32.693h-23.258l-5.73 36.067h23.594l-15.166 94.713c-0.675 4.716-1.351 9.433-1.351 15.498 0 21.573 12.135 38.090 44.152 38.090 14.829 0 33.030-2.691 44.495-7.753l5.728-40.782c-8.425 3.703-20.555 6.401-27.639 6.401-9.775 0-13.478-5.054-13.478-13.478 0-3.371 0.675-6.745 1.011-10.447l13.482-82.24h38.42zM923.942 260.448c-20.56 0-39.098 8.089-51.908 16.847l12.132-75.498h-51.572l-38.084 242.342h51.229l20.56-129.425c8.765-6.403 20.223-12.132 31.35-12.132 11.456 0 14.829 5.728 15.166 13.815 0 4.043-0.675 8.428-1.011 11.798l-18.198 115.945h51.229l18.876-119.657c1.351-9.103 2.356-17.861 2.356-24.265 0-24.265-10.781-39.771-42.123-39.771zM1079.045 262.471c-58.314 0-81.903 70.781-81.903 123.363 0 42.133 18.54 61.681 48.192 61.681 20.898 0 38.093-9.779 51.229-20.898l-2.691 17.525h21.235l38.093-242.342h-22.585l-11.798 76.174c-11.119-8.424-21.91-15.502-39.771-15.502zM1021.063 385.158c0-32.693 14.832-102.463 56.291-102.463 15.498 0 26.96 6.403 37.408 15.844l-17.188 110.554c-11.128 9.103-28.318 18.198-44.833 18.198-22.235 0-31.678-12.135-31.678-42.133zM1201.036 266.176l-27.986 177.971h22.25l27.976-177.971h-22.243zM1203.722 223.37c0 8.089 4.721 13.815 12.814 13.815 11.463 0 18.54-9.433 18.54-19.548 0-7.753-4.386-12.806-13.478-12.806-11.128 0.004-17.875 8.765-17.875 18.54zM1346.29 262.471c-18.198 0-34.044 10.447-46.848 22.586l3.028-18.876h-21.226l-27.986 177.971h22.585l21.578-137.179c10.447-10.116 27.3-22.922 40.782-22.922 11.456 0 14.494 6.403 17.525 16.181l20.56-9.44c-2.691-13.49-10.444-28.318-29.992-28.318zM1511.435 302.581c0-22.585-15.507-40.107-46.518-40.107-62.016 0-84.265 68.085-84.265 115.945 0 38.426 14.494 69.77 58.989 69.77 22.25 0 38.090-4.716 49.211-10.447l3.371-21.906c-12.471 6.065-28.651 12.463-46.848 12.463-29.999 0-41.8-18.872-41.8-48.534 0-5.736 0.339-11.798 1.011-18.207 41.465-1.011 106.851-9.432 106.851-58.978zM1408.297 343.7c4.043-27.304 22.585-61.681 52.244-61.681 17.868 0 27.3 7.753 27.3 22.243-0.004 30.341-51.574 39.442-79.544 39.442zM1599.382 428.64c-29.992 0-41.458-17.525-41.458-52.58 0-33.366 14.494-93.696 57.305-93.696 20.56 0 28.312 16.181 30.339 34.716l20.891-4.721c-1.351-22.243-11.799-49.879-47.861-49.879-62.702 0-84.265 65.384-84.265 117.296 0 36.067 14.494 68.421 61.681 68.421 20.56 0 38.083-4.716 50.551-10.781l3.371-21.91c-15.502 7.744-33.702 13.135-50.558 13.135zM1783.395 284.383l2.7-18.207h-46.518l6.737-41.794-24.265 12.806-4.721 28.988h-22.915l-2.691 18.207h22.915l-19.209 119.653c-0.676 4.716-1.011 9.103-1.011 13.145 0 19.548 8.761 31.014 31.679 31.014 12.132 0 25.617-3.371 32.694-6.738l3.035-20.56c-8.089 3.703-19.548 7.753-28.651 7.753-12.132 0-15.844-5.728-15.844-16.181 0-5.054 1.019-11.798 2.025-18.198l17.532-109.878h46.511z"></path>
</svg>
