<?xml version="1.0" encoding="utf-8"?>
<!-- Generator: Adobe Illustrator 20.0.0, SVG Export Plug-In . SVG Version: 6.00 Build 0)  -->
<svg version="1.1" id="Layer_1" xmlns="http://www.w3.org/2000/svg" xmlns:xlink="http://www.w3.org/1999/xlink" x="0px" y="0px"
	 viewBox="0 0 175 175" style="enable-background:new 0 0 175 175;" xml:space="preserve">
<style type="text/css">
	.st0{fill:#F4F6F7;}
	.st1{fill:#F5896B;}
	.st2{fill:#F6B76D;}
	.st3{fill:#E25553;}
</style>
<rect class="st0" width="175" height="175"/>
<path class="st1" d="M89.17,101.39c-4.01,16.5-25.06,26.96-40.7,19.66c-22.19-10.37-7.78-42.31,8.39-49.74
	c13.15-6.04,24.5,1.78,30.58,14.65C89.96,91.29,90.34,96.57,89.17,101.39"/>
<path class="st2" d="M154.03,59.87c-1.69,3.84-4.46,7.46-8.52,10.64c-9.18,7.21-21.94,12.64-33.91,9.49
	c-15.44-4.08-24.9-19.01-21.68-34.28c4.03-19.06,26.43-31.69,44.63-25.2C149.57,25.88,160.88,44.32,154.03,59.87"/>
<path class="st3" d="M45.69,149.88c0.28,9.96-11.44,16.77-20.15,9.42c-6.06-5.12-4.93-13.96,0.25-18.8
	c6.54-6.11,16.92-2.77,19.4,6.19C45.52,147.76,45.67,148.84,45.69,149.88"/>
</svg>
